<svg width="222" height="139" viewBox="0 0 222 139" fill="none" xmlns="http://www.w3.org/2000/svg">
<path d="M56.2923 41.5385C52.8462 45.8462 45.0308 55.6308 44.3538 56.4923C19.9231 59.8154 0.353846 69.3538 1.95385 79.3231C3.18462 86.8923 15.8615 90.7077 21.5231 90.7692H21.8923C21.5846 94.6462 26.5692 97.9077 26.5077 97.2308C25.8308 96.0615 26.3846 93.6 27.7385 90.3385C50.0154 88.0615 76.5385 74.1538 86.0154 57.9077C89.0923 58.1538 92.0462 58.4615 95.1231 58.9538C96.7846 59.2 96.6615 58.8923 95.5538 58.4615C93.6462 57.7231 90.4462 57.1077 86.7538 56.6154C88.5385 53.1077 89.5846 49.5385 89.5846 45.9077C89.5846 28.4308 73.7692 19.8769 59.8615 18.8923C36.9692 17.2308 17.6462 28.4308 17.6462 37.4154C17.6462 40.4308 20.4154 42.4 21.8923 43.0769C23.8615 43.9385 26.2615 44.6769 30.5692 44.8615C31.3692 44.9231 31.3077 44.4308 30.7538 44.3077C24.0462 42.7692 23 41.1077 23 39.9385C23 33.2923 41.8923 21.6615 61.3385 22.7077C70.8769 23.2615 86.6308 27.8769 85.9538 40.8615C85.6462 46.0923 83.5538 51.1385 80.1077 55.8769C73.9538 55.3231 67.8 55.0769 64.7231 55.0769C61.0923 55.0769 56.8462 55.2 52.8462 55.5077C54.8769 53.1077 58.0154 49.1077 60.9077 45.6C66.1385 39.2615 69.7692 34.7077 69.9538 33.8462C70.1385 32.8 68.4154 29.6615 66.7538 28.0615C65.6462 27.0769 65.1538 26.8308 64.7231 26.7692C64.5385 26.7077 64.2923 26.8308 64.3538 26.8923C64.7846 27.1385 64.9692 27.6308 64.9077 28.6154C64.6615 31.2615 61.0308 35.6308 56.2923 41.5385ZM31.4308 83.9385C35.9846 76.1231 42.6923 67.3846 49.7692 59.1385C55 58.2154 60.5385 57.4769 65.4 57.4769C70.4462 57.4769 74.8154 57.4769 78.8154 57.6C68.8462 69.9692 49.8923 79.7538 31.4308 83.9385ZM33.5846 71.0769C29.8923 76.4308 27.0615 80.4308 24.4769 85.3538C20.7846 85.9077 17.2154 85.9692 14.0154 85.9077C11.8 85.9077 7.43077 84.8615 6.07692 82.2154C2.93846 76 20.9692 65.1692 40.9692 60.8615C38.1385 64.6769 35.6769 68.0615 33.5846 71.0769Z" fill="#A9A9A9"/>
<path d="M133.6 54.16C134.133 54.2133 134.4 54.48 134.4 54.96C134.347 55.12 134.267 55.3333 134.16 55.6C134.16 55.5467 133.973 55.76 133.6 56.24C133.387 56.56 132.853 57.2533 132 58.32C131.147 59.3333 130.213 60.48 129.2 61.76C128.187 63.04 127.173 64.2933 126.16 65.52C125.2 66.6933 124.48 67.5733 124 68.16C122.72 69.76 121.6 71.12 120.64 72.24C119.733 73.3067 118.88 74.24 118.08 75.04C117.333 75.7867 116.64 76.4 116 76.88C115.36 77.36 114.693 77.7867 114 78.16C113.253 78.5333 112.613 78.8 112.08 78.96C111.6 79.0667 111.013 79.12 110.32 79.12C109.68 79.0667 109.147 78.9867 108.72 78.88C108.347 78.72 107.947 78.4267 107.52 78C106.613 77.0933 106.053 75.8933 105.84 74.4C105.68 72.9067 105.813 71.2267 106.24 69.36C106.4 68.88 106.48 68.56 106.48 68.4C106.587 68.0267 106.72 67.5733 106.88 67.04C107.093 66.5067 107.307 66 107.52 65.52C107.733 64.88 107.973 64.24 108.24 63.6C108.347 63.4933 108.48 63.2533 108.64 62.88C108.8 62.4533 108.987 62 109.2 61.52C109.627 60.5067 110.027 59.68 110.4 59.04C110.773 58.3467 111.28 57.5467 111.92 56.64C112.187 56.2667 112.427 55.92 112.64 55.6C112.907 55.2267 113.147 54.88 113.36 54.56C111.227 56.2667 108.96 58.2133 106.56 60.4C104.16 62.5867 102.027 64.88 100.16 67.28C98.08 69.8933 96.24 71.6 94.64 72.4C93.0933 73.1467 91.8133 73.3067 90.8 72.88C89.7867 72.4533 89.04 71.6267 88.56 70.4C88.08 69.1733 87.8933 67.8933 88 66.56C88.1067 65.2267 88.4533 63.7867 89.04 62.24C89.6267 60.64 90.48 59.0133 91.6 57.36C92.6667 55.7067 94.0267 54.0533 95.68 52.4C97.3333 50.7467 99.28 49.2 101.52 47.76C103.28 46.64 104.8 46 106.08 45.84C107.413 45.6267 108.56 45.7067 109.52 46.08C110.48 46.4 111.227 46.9067 111.76 47.6C112.293 48.2933 112.667 49.0133 112.88 49.76C113.093 50.4533 113.093 51.0667 112.88 51.6C112.72 52.1333 112.4 52.4 111.92 52.4C112.08 51.92 112.16 51.4933 112.16 51.12C112.107 50.8533 111.973 50.5867 111.76 50.32C111.547 50.0533 111.147 49.92 110.56 49.92C109.92 49.92 109.173 49.9733 108.32 50.08C107.467 50.1867 106.48 50.56 105.36 51.2C104.24 51.7867 103.013 52.7467 101.68 54.08C100.347 55.4133 98.88 57.3333 97.28 59.84C95.68 62.3467 94.5333 64.3733 93.84 65.92C93.1467 67.4667 92.7467 68.6133 92.64 69.36C92.5333 70.1067 92.6667 70.5333 93.04 70.64C93.36 70.6933 93.7867 70.5333 94.32 70.16C94.5867 69.9467 95.2267 69.3333 96.24 68.32C97.2533 67.3067 98.4533 66.1067 99.84 64.72C101.28 63.28 102.827 61.7867 104.48 60.24C106.133 58.64 107.707 57.2267 109.2 56C110.693 54.72 112.027 53.7067 113.2 52.96C114.373 52.2133 115.2 51.9733 115.68 52.24C115.84 52.1867 116.24 52.16 116.88 52.16C117.307 52.16 117.627 52.1867 117.84 52.24C118.107 52.24 118.427 52.2933 118.8 52.4C119.547 52.6667 120.16 53.0133 120.64 53.44C121.173 53.8133 121.44 54.2133 121.44 54.64C121.44 54.9067 121.333 55.2533 121.12 55.68C120.907 56.0533 120.533 56.6133 120 57.36C119.733 57.7333 119.44 58.16 119.12 58.64C118.8 59.12 118.533 59.5467 118.32 59.92C118.053 60.24 117.733 60.6667 117.36 61.2C117.04 61.68 116.72 62.1333 116.4 62.56C115.92 63.2 115.387 63.9467 114.8 64.8C114.267 65.6533 113.707 66.5333 113.12 67.44C112.587 68.2933 112.08 69.1467 111.6 70C111.173 70.8 110.827 71.4667 110.56 72C110.08 73.0667 109.76 74.08 109.6 75.04C109.44 76 109.493 76.7467 109.76 77.28C110.187 78.24 111.093 78.3467 112.48 77.6C113.12 77.28 113.76 76.88 114.4 76.4C115.04 75.8667 115.76 75.2 116.56 74.4C117.413 73.5467 118.373 72.5067 119.44 71.28C120.56 70 121.867 68.4533 123.36 66.64C124.16 65.68 125.067 64.6133 126.08 63.44C127.093 62.2133 128.08 61.0133 129.04 59.84C130.053 58.6133 130.96 57.4933 131.76 56.48C132.613 55.4667 133.227 54.6933 133.6 54.16ZM162.889 53.84C163.476 54 163.876 54.2133 164.089 54.48C164.196 54.5867 164.249 54.72 164.249 54.88C160.729 60.0533 157.343 64.9067 154.089 69.44C152.703 71.36 151.263 73.3333 149.769 75.36C148.276 77.3333 146.809 79.2267 145.369 81.04C143.929 82.8533 142.543 84.5067 141.209 86C139.929 87.4933 138.783 88.72 137.769 89.68C135.743 91.6 133.983 92.9867 132.489 93.84C130.996 94.6933 129.796 95.2533 128.889 95.52C127.769 95.84 126.863 95.8933 126.169 95.68C124.409 95.36 123.529 93.7067 123.529 90.72C123.529 88.8 123.849 86.6667 124.489 84.32C125.129 81.9733 126.009 79.68 127.129 77.44C128.783 73.9733 131.663 69.7333 135.769 64.72C136.356 63.9733 136.996 63.2533 137.689 62.56C138.383 61.8133 139.263 60.9067 140.329 59.84C140.756 59.4133 140.916 59.04 140.809 58.72C140.703 58.4 140.516 58.1067 140.249 57.84C139.983 57.52 139.583 57.2267 139.049 56.96C137.823 56.48 136.783 56 135.929 55.52C135.129 55.04 134.463 54.5867 133.929 54.16C133.343 53.68 132.863 53.2267 132.489 52.8C132.063 52.4267 131.663 52.0267 131.289 51.6C130.916 51.12 130.623 50.72 130.409 50.4C130.089 49.9733 129.876 49.44 129.769 48.8C129.609 48.1067 129.503 47.4133 129.449 46.72C129.396 46.0267 129.396 45.36 129.449 44.72C129.449 44.0267 129.476 43.44 129.529 42.96C129.583 42.2133 129.823 41.4133 130.249 40.56C130.676 39.6533 131.209 38.8 131.849 38C132.436 37.1467 133.076 36.4267 133.769 35.84C134.463 35.2 135.129 34.7733 135.769 34.56C136.196 34.4 136.543 34.32 136.809 34.32C137.076 34.2667 137.556 34.24 138.249 34.24C139.156 34.24 139.823 34.2933 140.249 34.4C140.676 34.5067 141.183 34.7467 141.769 35.12C144.009 36.4533 144.303 38.8 142.649 42.16C142.543 42.3733 142.303 42.8533 141.929 43.6C141.556 44.3467 141.129 45.1733 140.649 46.08C140.169 46.9333 139.716 47.7867 139.289 48.64C138.863 49.44 138.543 50 138.329 50.32C137.903 50.96 137.529 51.52 137.209 52C136.889 52.48 136.756 52.7467 136.809 52.8C136.863 52.9067 137.209 53.1733 137.849 53.6C138.543 54.0267 139.423 54.5333 140.489 55.12C141.023 55.3867 141.529 55.68 142.009 56C142.543 56.32 142.889 56.56 143.049 56.72C143.263 56.88 143.529 57.0667 143.849 57.28C144.223 57.44 144.569 57.6267 144.889 57.84C145.209 58 145.476 58.16 145.689 58.32C145.956 58.48 146.089 58.64 146.089 58.8C146.089 58.96 146.196 59.12 146.409 59.28C146.623 59.44 146.809 59.6267 146.969 59.84C147.129 60 147.209 60.2133 147.209 60.48C147.209 60.7467 147.023 61.0933 146.649 61.52C146.276 61.8933 145.823 62.3733 145.289 62.96C144.809 63.5467 144.276 64.16 143.689 64.8C143.156 65.44 142.623 66.08 142.089 66.72C141.556 67.3067 141.103 67.8133 140.729 68.24C139.556 69.6267 138.356 71.1733 137.129 72.88C135.956 74.5867 134.836 76.2933 133.769 78C132.703 79.7067 131.769 81.36 130.969 82.96C130.116 84.56 129.476 85.9467 129.049 87.12C128.569 88.4533 128.249 89.68 128.089 90.8C127.876 91.9733 127.849 92.8533 128.009 93.44C128.489 93.92 129.369 93.7067 130.649 92.8C131.929 91.8933 133.423 90.56 135.129 88.8C136.889 87.04 138.783 84.96 140.809 82.56C142.836 80.1067 144.889 77.5733 146.969 74.96C151.769 68.9333 157.076 61.8933 162.889 53.84ZM139.049 37.44C138.516 37.92 137.929 38.6933 137.289 39.76C136.703 40.7733 136.169 41.8933 135.689 43.12C135.263 44.2933 134.943 45.4667 134.729 46.64C134.516 47.8133 134.516 48.7467 134.729 49.44C134.836 49.8667 134.969 50.2933 135.129 50.72C135.343 51.1467 135.503 51.36 135.609 51.36C135.663 51.2533 135.743 51.1467 135.849 51.04C135.903 50.9333 135.956 50.8267 136.009 50.72C136.116 50.6133 136.223 50.5067 136.329 50.4C136.916 49.4933 137.529 48.3733 138.169 47.04C138.809 45.7067 139.369 44.3733 139.849 43.04C140.383 41.6533 140.783 40.4 141.049 39.28C141.316 38.1067 141.369 37.2533 141.209 36.72C141.103 36.4533 141.023 36.32 140.969 36.32C140.809 36.32 140.516 36.4533 140.089 36.72C139.716 36.9333 139.369 37.1733 139.049 37.44ZM182.666 54.16C182.986 54.2133 183.173 54.32 183.226 54.48C183.333 54.5867 183.386 54.7467 183.386 54.96C183.386 55.12 183.333 55.3333 183.226 55.6C183.173 55.5467 182.986 55.76 182.666 56.24C182.453 56.56 181.92 57.2533 181.066 58.32C180.213 59.3333 179.253 60.48 178.186 61.76C177.173 63.04 176.16 64.2933 175.146 65.52C174.186 66.6933 173.466 67.5733 172.986 68.16C171.76 69.76 170.666 71.12 169.706 72.24C168.8 73.3067 167.946 74.24 167.146 75.04C166.4 75.7867 165.706 76.4 165.066 76.88C164.426 77.36 163.76 77.7867 163.066 78.16C162.32 78.5333 161.706 78.8 161.226 78.96C160.693 79.0667 160.08 79.12 159.386 79.12C158.693 79.0667 158.16 78.9867 157.786 78.88C157.36 78.72 156.96 78.4267 156.586 78C155.68 77.0933 155.12 75.8933 154.906 74.4C154.693 72.9067 154.826 71.2267 155.306 69.36C155.466 68.88 155.546 68.56 155.546 68.4C155.653 68.0267 155.786 67.5733 155.946 67.04C156.106 66.5067 156.293 66 156.506 65.52C156.773 64.88 157.04 64.24 157.306 63.6C157.413 63.4933 157.546 63.2533 157.706 62.88C157.866 62.4533 158.053 62 158.266 61.52C158.693 60.5067 159.093 59.68 159.466 59.04C159.84 58.3467 160.346 57.5467 160.986 56.64C161.626 55.68 162.266 54.8267 162.906 54.08C163.546 53.28 164 52.7467 164.266 52.48C164.533 52.32 164.72 52.24 164.826 52.24C164.986 52.1867 165.333 52.16 165.866 52.16C166.346 52.16 166.693 52.1867 166.906 52.24C167.173 52.24 167.466 52.2933 167.786 52.4C168.586 52.6667 169.226 53.0133 169.706 53.44C170.186 53.8133 170.426 54.2133 170.426 54.64C170.48 55.0133 170.026 55.92 169.066 57.36C168.8 57.7333 168.506 58.16 168.186 58.64C167.866 59.12 167.6 59.5467 167.386 59.92C167.12 60.24 166.8 60.6667 166.426 61.2C166.053 61.68 165.733 62.1333 165.466 62.56C164.986 63.2 164.453 63.9467 163.866 64.8C163.333 65.6533 162.8 66.5333 162.266 67.44C161.68 68.2933 161.173 69.1467 160.746 70C160.266 70.8 159.893 71.4667 159.626 72C159.146 73.0667 158.826 74.08 158.666 75.04C158.506 76 158.56 76.7467 158.826 77.28C159.253 78.24 160.16 78.3467 161.546 77.6C162.133 77.28 162.746 76.88 163.386 76.4C164.026 75.8667 164.746 75.2 165.546 74.4C166.4 73.5467 167.36 72.5067 168.426 71.28C169.546 70 170.853 68.4533 172.346 66.64C173.146 65.68 174.053 64.6133 175.066 63.44C176.08 62.2133 177.093 61.0133 178.106 59.84C179.12 58.6133 180.026 57.4933 180.826 56.48C181.68 55.4667 182.293 54.6933 182.666 54.16ZM177.866 42.32C177.973 42.7467 177.84 43.2 177.466 43.68C177.146 44.1067 176.613 44.7467 175.866 45.6C175.44 46.0267 175.013 46.4533 174.586 46.88C174.16 47.2533 173.653 47.7333 173.066 48.32C172.533 48.8533 172 49.3067 171.466 49.68C170.986 50.0533 170.693 50.2133 170.586 50.16H170.346C170.24 50.16 170.213 50.0267 170.266 49.76C170.32 49.44 170.293 49.2533 170.186 49.2L170.106 48.16C170.16 47.52 170.213 47.12 170.266 46.96C170.32 46.8 170.4 46.6667 170.506 46.56C170.613 46.4533 170.746 46.2933 170.906 46.08C171.066 45.8667 171.253 45.44 171.466 44.8C171.626 44.3733 171.76 44.08 171.866 43.92C171.973 43.7067 172.053 43.5467 172.106 43.44C172.213 43.28 172.293 43.1467 172.346 43.04C172.453 42.9333 172.533 42.7467 172.586 42.48C172.853 41.7333 173.226 41.0667 173.706 40.48C174.24 39.8933 174.72 39.6533 175.146 39.76C175.626 39.8667 176.16 40.2133 176.746 40.8C177.333 41.3867 177.706 41.8933 177.866 42.32ZM220.032 53.84C220.245 53.7867 220.432 53.8133 220.592 53.92C220.805 53.9733 220.965 54.0533 221.072 54.16C221.232 54.2667 221.365 54.4 221.472 54.56C218.165 56.8 214.912 58.32 211.712 59.12C208.565 59.92 205.872 60.2667 203.632 60.16C203.259 61.1733 202.832 62.2133 202.352 63.28C201.925 64.2933 201.472 65.28 200.992 66.24C200.565 67.2 200.139 68.08 199.712 68.88C199.285 69.68 198.885 70.3467 198.512 70.88C197.072 73.12 195.392 74.9867 193.472 76.48C191.605 77.92 189.685 78.9333 187.712 79.52C187.072 79.68 186.165 79.76 184.992 79.76C183.872 79.76 183.045 79.68 182.512 79.52C181.285 79.1467 180.192 78.48 179.232 77.52C176.832 75.12 175.712 71.84 175.872 67.68C175.925 67.2 175.952 66.8 175.952 66.48C175.952 66.16 175.925 66 175.872 66C175.872 65.4133 175.952 64.8267 176.112 64.24C176.219 63.6533 176.352 63.1467 176.512 62.72C176.725 62.1867 176.939 61.68 177.152 61.2C177.259 61.04 177.365 60.88 177.472 60.72C177.525 60.5067 177.605 60.2933 177.712 60.08C178.459 58.5333 179.365 57.1733 180.432 56C181.445 54.8267 182.725 53.7067 184.272 52.64C185.232 51.9467 186.032 51.4933 186.672 51.28C187.365 51.0133 188.085 50.88 188.832 50.88L189.552 50.8V50.4C189.552 49.4933 189.872 48.4533 190.512 47.28C191.205 46.0533 192.005 45.0133 192.912 44.16C193.819 43.2533 194.752 42.6133 195.712 42.24C196.672 41.8667 197.685 41.68 198.752 41.68C201.472 41.68 203.445 42.6933 204.672 44.72C205.365 45.84 205.819 47.2 206.032 48.8C206.245 50.3467 206.192 51.8933 205.872 53.44C205.765 53.76 205.632 54.1867 205.472 54.72C205.365 55.2 205.232 55.68 205.072 56.16C204.912 56.7467 204.725 57.3333 204.512 57.92L204.192 58.8C206.059 58.9067 207.925 58.72 209.792 58.24C211.659 57.7067 213.365 57.12 214.912 56.48C216.672 55.7333 218.379 54.8533 220.032 53.84ZM197.152 66.64C197.685 65.84 198.299 64.7733 198.992 63.44C199.739 62.1067 200.325 60.96 200.752 60C199.579 59.8933 198.405 59.6533 197.232 59.28C196.272 58.96 195.232 58.48 194.112 57.84C193.045 57.2 192.112 56.3467 191.312 55.28L190.832 54.72L189.872 55.68C189.339 56.2667 188.672 57.0933 187.872 58.16C187.072 59.1733 186.379 60.1067 185.792 60.96C184.725 62.56 183.899 64.2133 183.312 65.92C182.779 67.6267 182.512 69.3067 182.512 70.96C182.512 71.8667 182.565 72.64 182.672 73.28C182.832 73.92 183.099 74.56 183.472 75.2C183.739 75.7867 184.139 76.32 184.672 76.8C185.259 77.28 185.739 77.52 186.112 77.52C186.165 77.52 186.299 77.4667 186.512 77.36C186.725 77.2533 186.965 77.1467 187.232 77.04C188.672 76.2933 190.245 75.0133 191.952 73.2C193.712 71.3867 195.445 69.2 197.152 66.64ZM202.752 51.44C202.859 50.64 202.859 49.7867 202.752 48.88C202.699 47.92 202.539 47.04 202.272 46.24C202.059 45.44 201.739 44.7733 201.312 44.24C200.939 43.7067 200.459 43.4133 199.872 43.36C198.699 43.2533 197.659 43.68 196.752 44.64C195.899 45.5467 195.152 46.6933 194.512 48.08C193.819 49.4667 193.499 50.6667 193.552 51.68C193.659 52.6933 193.979 53.7333 194.512 54.8C194.939 55.6 195.525 56.2667 196.272 56.8C197.019 57.28 197.765 57.68 198.512 58C199.419 58.3733 200.352 58.64 201.312 58.8L202.032 55.76C202.192 55.2267 202.325 54.56 202.432 53.76C202.539 52.96 202.645 52.1867 202.752 51.44Z" fill="#A9A9A9"/>
</svg>
