<svg width="97" height="82" viewBox="0 0 97 82" fill="none" xmlns="http://www.w3.org/2000/svg">
<path d="M56.2923 24.9005C52.8462 29.2082 45.0308 38.9928 44.3538 39.8543C19.9231 43.1774 0.353846 52.7159 1.95385 62.6851C3.18462 70.2543 15.8615 74.0697 21.5231 74.1313H21.8923C21.5846 78.0082 26.5692 81.2697 26.5077 80.5928C25.8308 79.4236 26.3846 76.962 27.7385 73.7005C50.0154 71.4236 76.5385 57.5159 86.0154 41.2697C89.0923 41.5159 92.0462 41.8236 95.1231 42.3159C96.7846 42.562 96.6615 42.2543 95.5538 41.8236C93.6462 41.0851 90.4462 40.4697 86.7538 39.9774C88.5385 36.4697 89.5846 32.9005 89.5846 29.2697C89.5846 11.7928 73.7692 3.23896 59.8615 2.25435C36.9692 0.592807 17.6462 11.7928 17.6462 20.7774C17.6462 23.7928 20.4154 25.762 21.8923 26.439C23.8615 27.3005 26.2615 28.039 30.5692 28.2236C31.3692 28.2851 31.3077 27.7928 30.7538 27.6697C24.0462 26.1313 23 24.4697 23 23.3005C23 16.6543 41.8923 5.02358 61.3385 6.06973C70.8769 6.62358 86.6308 11.239 85.9538 24.2236C85.6462 29.4543 83.5538 34.5005 80.1077 39.239C73.9538 38.6851 67.8 38.439 64.7231 38.439C61.0923 38.439 56.8462 38.562 52.8462 38.8697C54.8769 36.4697 58.0154 32.4697 60.9077 28.962C66.1385 22.6236 69.7692 18.0697 69.9538 17.2082C70.1385 16.162 68.4154 13.0236 66.7538 11.4236C65.6462 10.439 65.1538 10.1928 64.7231 10.1313C64.5385 10.0697 64.2923 10.1928 64.3538 10.2543C64.7846 10.5005 64.9692 10.9928 64.9077 11.9774C64.6615 14.6236 61.0308 18.9928 56.2923 24.9005ZM31.4308 67.3005C35.9846 59.4851 42.6923 50.7467 49.7692 42.5005C55 41.5774 60.5385 40.839 65.4 40.839C70.4462 40.839 74.8154 40.839 78.8154 40.962C68.8462 53.3313 49.8923 63.1159 31.4308 67.3005ZM33.5846 54.439C29.8923 59.7928 27.0615 63.7928 24.4769 68.7159C20.7846 69.2697 17.2154 69.3313 14.0154 69.2697C11.8 69.2697 7.43077 68.2236 6.07692 65.5774C2.93846 59.362 20.9692 48.5313 40.9692 44.2236C38.1385 48.039 35.6769 51.4236 33.5846 54.439Z" fill="black"/>
</svg>
